<?xml version="1.0" standalone="no"?>
<!DOCTYPE svg>
<svg version="1.0" xmlns="http://www.w3.org/2000/svg" width="200%" height="200%" viewBox="0 0 740.000000 740.000000" preserveAspectRatio="xMidYMid meet">
    <g transform="translate(0.000000,740.000000) scale(0.100000,-0.100000)" fill="#000000" stroke="none">
    
<path d="M0 3700 l0 -3700 3700 0 3700 0 0 3700 0 3700 -3700 0 -3700 0 0
-3700z m4365 1945 c39 -3 116 -12 173 -20 56 -8 106 -15 110 -15 4 0 0 -5 -8
-11 -12 -8 -11 -9 6 -4 28 7 81 -16 128 -58 25 -23 36 -39 31 -47 -5 -9 -4
-11 3 -6 7 4 23 -5 37 -21 26 -29 33 -49 13 -37 -7 4 -8 3 -4 -5 4 -6 11 -9
16 -6 9 6 63 -63 125 -159 21 -32 31 -55 24 -52 -8 4 -5 0 5 -8 18 -14 15 -21
-7 -17 -5 1 -6 -3 -2 -8 3 -6 12 -8 20 -5 16 7 39 -31 29 -48 -4 -6 -3 -8 3
-5 12 8 46 -61 37 -75 -4 -6 -2 -8 4 -4 6 3 13 2 16 -3 3 -5 21 -5 41 -1 19 4
35 5 35 1 0 -3 18 30 39 75 21 45 46 84 56 87 26 11 106 8 150 -4 40 -11 40
-12 18 -26 -13 -9 -23 -21 -23 -28 0 -16 -61 -66 -72 -59 -5 3 -7 0 -6 -8 2
-8 -4 -12 -16 -10 -10 2 -15 -1 -12 -7 7 -10 -62 -55 -99 -64 -11 -3 -33 -8
-50 -12 l-30 -8 25 -11 c14 -6 65 -35 113 -65 59 -36 87 -58 83 -67 -3 -8 -1
-14 4 -14 6 0 10 5 10 10 0 6 6 5 14 -2 8 -7 12 -16 10 -20 -2 -4 4 -9 15 -13
26 -8 103 -93 96 -105 -3 -6 -2 -10 3 -10 12 0 21 -69 10 -76 -5 -3 -7 -2 -6
3 5 19 -12 74 -22 68 -6 -4 -10 -3 -9 2 3 20 -2 27 -10 14 -6 -9 -6 -22 0 -32
6 -13 5 -17 -6 -15 -17 3 -44 26 -29 26 5 0 -4 9 -21 20 -16 11 -25 20 -18 20
6 0 15 -4 18 -10 3 -5 11 -10 18 -10 8 0 8 3 0 11 -6 6 -9 19 -6 28 5 13 3 14
-8 4 -21 -20 -42 -16 -90 19 -24 18 -46 35 -49 38 -3 3 -46 26 -96 52 -92 48
-118 52 -154 23 -22 -18 -49 -25 -55 -15 -5 9 33 26 48 22 5 -1 6 2 3 7 -4 5
0 12 6 14 7 3 -4 3 -24 0 -28 -4 -38 -2 -38 8 0 12 -2 12 -9 1 -6 -10 -10 -6
-14 15 -5 28 -7 28 -79 29 -197 1 -271 5 -265 11 4 3 76 6 160 5 83 -2 158 1
164 6 7 4 -31 7 -85 6 -69 -1 -84 1 -52 6 38 6 41 7 15 10 l-30 3 28 4 c38 6
34 23 -5 24 -18 1 -114 5 -213 8 l-180 7 145 1 c80 1 207 -2 283 -6 136 -6
137 -6 137 16 0 12 -5 25 -10 28 -6 4 -8 11 -5 16 4 5 1 9 -4 9 -6 0 -11 6
-11 13 0 7 -9 30 -21 51 -11 21 -19 47 -16 56 2 10 -1 17 -7 16 -6 0 -12 2
-13 7 -2 4 -28 44 -59 88 -44 64 -53 84 -42 91 10 8 9 9 -4 4 -20 -6 -60 38
-52 59 3 7 1 16 -5 20 -7 4 -8 -1 -4 -12 4 -12 -5 -8 -28 13 -96 89 -192 105
-717 123 -291 11 -788 1 -973 -19 -112 -12 -124 -12 -116 -4 3 4 32 8 63 11
31 2 73 8 93 13 28 6 20 8 -39 5 -41 -2 -94 -7 -117 -11 -27 -4 -43 -3 -43 4
0 12 88 22 275 32 158 9 1122 5 1230 -5z m-1511 -41 c4 -9 13 -14 21 -10 8 3
15 2 15 -2 0 -5 -22 -13 -49 -18 -47 -10 -49 -9 -45 12 4 20 2 21 -21 11 -17
-8 -20 -13 -10 -15 19 -4 19 -16 0 -32 -13 -11 -14 -10 -10 3 5 11 0 15 -19
13 -14 0 -26 -5 -26 -11 0 -5 -4 -4 -8 3 -7 10 -14 8 -34 -7 -18 -15 -25 -16
-25 -6 0 8 4 12 9 9 4 -3 8 0 8 5 0 6 6 11 14 11 7 0 19 7 26 15 7 9 15 14 17
12 2 -3 20 2 41 9 51 18 89 17 96 -2z m-123 -77 c-10 -9 -11 -8 -5 6 3 10 9
15 12 12 3 -3 0 -11 -7 -18z m-28 -6 c-4 -3 -11 -10 -15 -15 -4 -4 -6 1 -5 12
1 12 6 18 15 15 7 -3 10 -9 5 -12z m-68 -29 c-3 -3 -11 0 -18 7 -9 10 -8 11 6
5 10 -3 15 -9 12 -12z m-31 0 c3 -5 -1 -9 -9 -9 -8 0 -12 4 -9 9 3 4 7 8 9 8
2 0 6 -4 9 -8z m-44 -35 c0 -2 -10 -12 -22 -23 l-23 -19 19 23 c18 21 26 27
26 19z m1647 -433 c-3 -3 -12 -4 -19 -1 -8 3 -5 6 6 6 11 1 17 -2 13 -5z m71
-1 c-10 -2 -28 -2 -40 0 -13 2 -5 4 17 4 22 1 32 -1 23 -4z m115 0 c-7 -2 -19
-2 -25 0 -7 3 -2 5 12 5 14 0 19 -2 13 -5z m274 -19 c-3 -3 -12 -4 -19 -1 -8
3 -5 6 6 6 11 1 17 -2 13 -5z m32 -30 c10 -9 -55 -3 -69 6 -10 6 -2 7 25 3 22
-3 42 -7 44 -9z m48 0 c-3 -3 -12 -4 -19 -1 -8 3 -5 6 6 6 11 1 17 -2 13 -5z
m-829 -11 c-16 -2 -40 -2 -55 0 -16 2 -3 4 27 4 30 0 43 -2 28 -4z m234 0
c-40 -2 -103 -2 -140 0 -37 2 -4 3 73 3 77 0 107 -2 67 -3z m115 1 c-3 -3 -12
-4 -19 -1 -8 3 -5 6 6 6 11 1 17 -2 13 -5z m169 -12 c-16 -2 -32 0 -37 5 -5 5
7 7 29 4 34 -5 35 -6 8 -9z m-83 1 c-13 -2 -33 -2 -45 0 -13 2 -3 4 22 4 25 0
35 -2 23 -4z m180 0 c-7 -2 -21 -2 -30 0 -10 3 -4 5 12 5 17 0 24 -2 18 -5z
m397 -53 c-6 -11 -13 -20 -16 -20 -2 0 0 9 6 20 6 11 13 20 16 20 2 0 0 -9 -6
-20z m20 -15 c0 -8 -4 -15 -10 -15 -5 0 -7 7 -4 15 4 8 8 15 10 15 2 0 4 -7 4
-15z m-46 -36 c-2 -4 0 -10 6 -14 6 -4 8 -11 5 -16 -4 -5 3 -9 15 -9 12 0 19
4 16 8 -2 4 7 9 22 10 l27 2 -30 -15 c-16 -7 -48 -21 -70 -29 -34 -14 -37 -14
-21 -1 17 13 17 15 3 15 -9 0 -21 9 -27 20 -9 16 -8 18 5 14 8 -3 12 -10 9
-15 -6 -10 7 -12 30 -3 13 5 14 9 5 20 -6 8 -15 11 -20 8 -13 -8 -11 10 3 24
9 9 14 9 19 0 4 -7 6 -15 3 -19z m51 1 c3 -6 -1 -7 -9 -4 -18 7 -21 14 -7 14
6 0 13 -4 16 -10z m-145 -110 c-8 -5 -18 -6 -22 -4 -4 3 -8 0 -8 -7 0 -7 -3
-10 -6 -6 -10 10 4 23 28 24 17 2 19 0 8 -7z m-80 -14 c0 -2 -8 -10 -17 -17
-16 -13 -17 -12 -4 4 13 16 21 21 21 13z m-2421 -96 c174 -57 214 -76 294
-138 55 -42 167 -166 167 -185 0 -4 -8 -6 -17 -3 -10 3 -59 16 -110 30 -50 14
-104 31 -120 37 -15 6 -53 12 -83 15 -30 2 -67 6 -82 10 -21 4 -27 2 -23 -8 8
-22 -100 -6 -154 21 -80 41 -103 152 -50 237 11 19 22 34 23 34 2 0 71 -22
155 -50z m2964 13 c29 -51 33 -122 8 -171 -30 -58 -106 -97 -171 -86 -26 4
-31 3 -20 -5 20 -14 -1 -14 -37 0 -49 19 -104 12 -248 -31 -77 -23 -148 -44
-157 -46 -28 -8 -22 7 32 73 56 69 142 143 204 176 49 25 347 127 361 123 5
-1 18 -16 28 -33z m-612 14 c-6 -8 -7 -18 -3 -22 4 -5 1 -5 -6 -1 -10 6 -10
11 -1 22 6 8 14 14 16 14 3 0 0 -6 -6 -13z m-31 -46 c-5 -11 -15 -23 -21 -27
-6 -3 -3 5 6 20 20 30 30 35 15 7z m873 -8 c-3 -7 -9 -10 -14 -7 -14 8 -11 21
5 21 8 0 12 -6 9 -14z m15 -103 c0 -9 -3 -7 -8 5 -5 11 -8 29 -8 40 0 16 2 15
8 -5 4 -14 8 -32 8 -40z m-2204 -900 c29 -14 57 -37 73 -61 69 -105 71 -355 3
-462 -49 -78 -162 -112 -285 -87 -80 17 -136 70 -160 154 -25 86 -18 305 12
361 48 91 120 127 239 122 48 -3 86 -11 118 -27z m936 5 c56 -28 89 -66 105
-119 23 -76 23 -76 -50 -76 -59 0 -65 2 -65 21 0 11 -13 34 -29 50 -24 24 -38
29 -76 29 -94 0 -115 -36 -115 -197 0 -176 22 -213 124 -213 37 0 48 5 69 29
13 16 27 48 31 70 l6 41 60 0 c59 0 60 0 60 -28 0 -56 -29 -128 -67 -165 -91
-92 -274 -84 -357 13 -44 53 -59 126 -54 269 3 100 8 135 25 171 42 92 117
133 233 126 36 -1 81 -11 100 -21z m-2967 -3 c10 -10 56 -129 103 -263 47
-134 94 -268 104 -296 l19 -53 -68 0 -68 0 -18 55 -19 55 -103 0 -102 0 -17
-55 -18 -55 -69 0 c-62 0 -68 2 -62 18 4 9 51 142 104 295 54 152 106 286 116
297 23 25 76 26 98 2z m507 -202 c0 -240 5 -265 55 -288 14 -7 46 -12 71 -12
37 0 51 6 75 29 l29 29 0 231 0 231 65 0 65 0 0 -235 c0 -256 -3 -277 -56
-329 -99 -97 -274 -99 -370 -3 -25 25 -46 59 -53 82 -6 24 -11 130 -11 263 l0
222 65 0 65 0 0 -220z m1000 165 l0 -55 -85 0 -85 0 0 -260 0 -261 -67 3 -68
3 -3 258 -2 257 -85 0 -85 0 0 55 0 55 240 0 240 0 0 -55z m2032 38 c9 -10 48
-108 86 -218 39 -110 86 -244 105 -297 l35 -98 -69 0 -68 0 -17 55 -18 56
-105 -3 -106 -3 -15 -52 -15 -53 -68 0 c-51 0 -68 3 -64 13 2 6 48 137 102
290 54 153 107 290 117 303 24 29 77 33 100 7z m741 3 c41 -17 91 -74 107
-121 26 -80 -13 -199 -75 -227 -14 -6 -25 -14 -25 -17 0 -4 29 -59 65 -123 36
-65 65 -120 65 -123 0 -3 -33 -5 -72 -5 l-73 0 -60 115 -60 115 -42 0 -43 0 0
-115 0 -115 -65 0 -66 0 3 284 c4 359 -5 344 196 345 73 1 124 -4 145 -13z
m757 -41 l0 -55 -150 0 -150 0 0 -70 0 -70 99 0 c55 0 102 -4 105 -9 3 -4 3
-31 -1 -60 l-6 -51 -98 0 -99 0 0 -53 c0 -88 6 -91 164 -95 l136 -4 0 -54 0
-54 -157 0 c-174 0 -207 8 -247 63 -20 27 -21 44 -24 298 l-3 269 215 0 216 0
0 -55z m-3961 -1030 c0 -5 -6 -1 -14 9 -8 11 -15 24 -15 30 0 5 7 1 15 -10 8
-10 14 -23 14 -29z m32 -29 c1 -6 1 -17 0 -24 -1 -8 7 -11 24 -8 15 3 23 1 20
-5 -4 -5 -11 -6 -17 -3 -6 4 -8 3 -5 -3 3 -5 20 -8 37 -5 17 2 37 -2 47 -9 14
-12 16 -12 9 1 -4 8 -1 7 7 -3 12 -14 20 -16 41 -7 15 5 37 10 49 10 52 -1
-58 -34 -153 -46 -25 -3 -31 -1 -20 6 13 8 13 10 -2 10 -11 0 -27 19 -42 48
-19 38 -21 49 -10 49 8 0 15 -5 15 -11z m314 -85 c15 -9 16 -11 3 -7 -23 7
-23 0 1 -25 14 -16 25 -18 47 -12 16 4 37 6 47 4 9 -1 17 3 17 8 0 6 -5 11
-11 11 -5 0 -7 5 -4 11 5 6 13 2 23 -13 19 -28 33 -38 44 -32 15 10 30 -7 18
-21 -8 -10 -7 -13 4 -11 7 0 40 -24 72 -55 56 -53 180 -141 234 -165 14 -6 45
-20 70 -32 25 -11 57 -23 70 -26 14 -3 66 -15 115 -27 74 -18 119 -22 250 -22
174 1 252 10 332 41 28 11 64 18 80 15 22 -4 25 -2 13 6 -12 8 -8 11 18 11 17
0 32 5 32 10 0 6 5 10 10 10 6 0 10 -9 10 -20 0 -13 -7 -20 -20 -20 -12 0 -17
-5 -14 -14 3 -8 13 -12 26 -8 13 3 19 1 15 -5 -4 -6 0 -14 9 -17 25 -10 41 -6
19 5 -17 8 -17 9 5 4 14 -2 42 -5 62 -5 25 0 47 -9 70 -27 19 -16 27 -19 18
-9 -15 19 -14 19 15 4 17 -9 39 -19 49 -22 19 -6 19 -7 0 -21 -17 -13 -16 -13
13 -3 17 7 34 20 37 31 3 14 1 17 -12 12 -13 -5 -13 -2 3 15 18 20 55 28 55
11 0 -5 -9 -7 -20 -4 -12 3 -20 0 -20 -6 0 -7 4 -10 9 -7 5 4 7 -3 4 -15 -5
-18 -49 -53 -93 -72 -8 -4 -22 -11 -30 -17 -46 -29 -170 -74 -205 -73 -28 0
-34 -2 -20 -7 15 -6 4 -12 -51 -29 -81 -24 -100 -26 -110 -9 -5 7 -2 9 7 4 8
-4 6 -1 -4 7 -9 8 -39 45 -66 83 l-48 69 -195 0 c-108 0 -194 -3 -192 -7 7
-11 -47 -88 -57 -82 -5 3 -8 2 -7 -3 4 -14 -13 -53 -23 -53 -5 0 -9 -7 -9 -15
0 -8 -2 -15 -4 -15 -2 0 -12 -3 -21 -7 -15 -5 -16 -3 -5 18 13 23 12 24 -7 6
-19 -16 -24 -16 -84 -1 -78 20 -218 73 -240 91 -8 7 -21 13 -27 13 -20 0 -143
72 -149 87 -3 9 3 58 15 111 22 106 18 127 -34 151 -14 6 -22 16 -19 21 4 6 3
9 -2 8 -4 -1 -19 6 -32 17 -34 28 -150 149 -151 157 0 9 22 4 45 -11z m153
-22 c19 -30 8 -34 -12 -4 -9 14 -13 25 -9 25 5 0 14 -9 21 -21z m1679 -361
c-3 -8 -6 -5 -6 6 -1 11 2 17 5 13 3 -3 4 -12 1 -19z"/>
<path d="M4048 5643 c7 -3 16 -2 19 1 4 3 -2 6 -13 5 -11 0 -14 -3 -6 -6z"/>
<path d="M4541 5596 c2 -2 20 -6 39 -10 25 -4 31 -3 20 4 -14 9 -69 15 -59 6z"/>
<path d="M4698 5532 c9 -10 19 -17 21 -16 6 5 -20 34 -30 34 -5 0 -1 -8 9 -18z"/>
<path d="M4850 5350 c6 -11 13 -20 16 -20 2 0 0 9 -6 20 -6 11 -13 20 -16 20
-2 0 0 -9 6 -20z"/>
<path d="M5057 5040 c-3 -13 -4 -26 -2 -29 3 -2 5 2 5 9 0 9 7 7 23 -6 22 -19
22 -19 6 1 -9 11 -18 27 -21 35 -3 10 -7 6 -11 -10z"/>
<path d="M5247 5044 c-3 -5 1 -15 9 -22 16 -14 18 -5 5 17 -5 7 -11 9 -14 5z"/>
<path d="M5146 5011 c-3 -4 4 -7 14 -6 27 2 33 10 10 12 -11 1 -22 -2 -24 -6z"/>
<path d="M4900 4989 c0 -6 -10 -8 -22 -5 l-23 6 22 -11 c24 -13 77 -4 68 11
-8 13 -45 13 -45 -1z"/>
<path d="M5125 4920 c-4 -6 -11 -7 -17 -4 -6 4 -8 2 -5 -4 4 -5 17 -8 29 -4
15 3 19 2 14 -7 -6 -9 0 -10 21 -5 38 9 42 14 10 14 -15 0 -27 5 -27 10 0 13
-17 13 -25 0z"/>
<path d="M5080 4890 c-9 -6 -10 -10 -3 -10 6 0 15 5 18 10 8 12 4 12 -15 0z"/>
<path d="M5210 4891 c0 -5 5 -13 10 -16 6 -3 10 -2 10 4 0 5 -4 13 -10 16 -5
3 -10 2 -10 -4z"/>
<path d="M5178 4883 c7 -3 16 -2 19 1 4 3 -2 6 -13 5 -11 0 -14 -3 -6 -6z"/>
<path d="M5160 4867 c0 -3 15 -10 32 -16 18 -6 28 -7 23 -2 -12 10 -55 25 -55
18z"/>
<path d="M5294 4856 c1 -8 5 -18 8 -22 4 -3 5 1 4 10 -1 8 -5 18 -8 22 -4 3
-5 -1 -4 -10z"/>
<path d="M5326 4843 c2 -7 -5 -17 -14 -23 -16 -11 -15 -11 1 -6 10 3 28 -1 40
-9 24 -17 47 -20 47 -6 0 5 -8 8 -17 7 -10 0 -17 4 -16 11 2 7 -4 10 -12 7
-11 -5 -13 -2 -8 12 4 11 3 15 -4 11 -6 -4 -13 -4 -16 0 -2 5 -2 2 -1 -4z"/>
<path d="M5342 4773 c-9 -3 -2 -13 19 -29 38 -27 74 -33 65 -9 -3 8 -2 15 3
15 14 0 33 -28 27 -39 -4 -5 -2 -12 4 -16 6 -4 8 -11 5 -16 -4 -5 -2 -9 3 -9
6 0 13 7 16 16 5 14 9 14 24 3 15 -13 16 -12 3 4 -8 10 -21 15 -29 12 -12 -4
-12 -3 -3 9 9 11 5 19 -20 40 -28 24 -57 27 -44 5 4 -5 -1 -9 -9 -9 -9 0 -16
7 -16 15 0 8 -5 15 -10 15 -7 0 -7 -7 0 -20 10 -19 10 -20 -9 -8 -11 6 -17 16
-15 20 6 9 5 9 -14 1z m129 -40 c13 -16 12 -17 -3 -4 -10 7 -18 15 -18 17 0 8
8 3 21 -13z"/>
<path d="M2815 5600 c3 -5 1 -10 -6 -10 -7 0 -10 -2 -7 -5 8 -9 38 6 32 16 -3
5 -10 9 -15 9 -6 0 -7 -4 -4 -10z"/>
<path d="M3111 3494 c-38 -27 -51 -74 -51 -189 0 -158 28 -205 121 -205 65 0
104 33 118 101 23 107 6 244 -35 286 -18 18 -34 23 -76 23 -33 0 -62 -6 -77
-16z"/>
<path d="M1200 3328 l-36 -113 38 -3 c21 -2 53 -2 71 0 l33 3 -35 113 -36 112
-35 -112z"/>
<path d="M4739 3326 l-36 -116 69 0 70 0 -6 28 c-4 15 -19 67 -34 116 l-27 89
-36 -117z"/>
<path d="M5368 3499 c-15 -8 -18 -24 -18 -89 l0 -80 71 0 c65 0 73 2 100 29
44 44 35 116 -18 140 -30 14 -112 14 -135 0z"/>
<path d="M2435 2426 c24 -18 38 -20 33 -4 -2 6 -15 13 -28 15 -24 3 -24 3 -5
-11z"/>
<path d="M2488 2423 c7 -3 16 -2 19 1 4 3 -2 6 -13 5 -11 0 -14 -3 -6 -6z"/>
<path d="M2751 2345 c8 -6 20 -17 27 -25 11 -13 12 -12 6 4 -5 13 -4 17 4 12
7 -4 12 -2 12 3 0 6 -3 11 -7 12 -55 6 -56 6 -42 -6z"/>
<path d="M2899 2293 c-13 -17 -13 -17 5 -3 15 11 20 12 23 3 3 -7 9 -13 15
-13 6 0 6 6 -2 15 -16 19 -24 19 -41 -2z"/>
<path d="M4080 2040 c0 -11 6 -20 13 -20 6 0 22 -3 33 -6 14 -4 23 0 28 11 5
14 2 16 -20 11 -15 -4 -23 -3 -20 3 3 5 -1 12 -10 15 -23 9 -24 8 -24 -14z"/>
<path d="M3808 1953 c7 -3 16 -2 19 1 4 3 -2 6 -13 5 -11 0 -14 -3 -6 -6z"/>
<path d="M3000 1906 c0 -2 7 -7 16 -10 8 -3 12 -2 9 4 -6 10 -25 14 -25 6z"/>
</g>
</svg>
